<svg width="33" height="47" viewBox="0 0 33 47" fill="none" xmlns="http://www.w3.org/2000/svg">
<path d="M32.6472 46.3828H0.709747V39.6641L12.1785 28.0703C14.491 25.6953 16.3452 23.7161 17.741 22.1328C19.1577 20.5286 20.1785 19.0703 20.8035 17.7578C21.4493 16.4453 21.7722 15.0391 21.7722 13.5391C21.7722 11.7266 21.2618 10.3724 20.241 9.47656C19.241 8.5599 17.8972 8.10156 16.2097 8.10156C14.4389 8.10156 12.7202 8.50781 11.0535 9.32031C9.38683 10.1328 7.64725 11.2891 5.83475 12.7891L0.584747 6.57031C1.89725 5.44531 3.28266 4.38281 4.741 3.38281C6.22016 2.38281 7.9285 1.58073 9.866 0.976562C11.8243 0.351562 14.1681 0.0390625 16.8972 0.0390625C19.8972 0.0390625 22.4702 0.580729 24.616 1.66406C26.7827 2.7474 28.4493 4.22656 29.616 6.10156C30.7827 7.95573 31.366 10.0599 31.366 12.4141C31.366 14.9349 30.866 17.237 29.866 19.3203C28.866 21.4036 27.4077 23.4661 25.491 25.5078C23.5952 27.5495 21.3035 29.8099 18.616 32.2891L12.741 37.8203V38.2578H32.6472V46.3828Z" fill="white"/>
</svg>
