<svg width="75" height="83" viewBox="0 0 75 83" fill="none" xmlns="http://www.w3.org/2000/svg">
<path d="M33.5324 1.87346C35.976 0.4914 38.9653 0.491399 41.409 1.87346L70.7132 18.447C73.2231 19.8665 74.7749 22.5269 74.7749 25.4104V58.2739C74.7749 61.1574 73.2231 63.8178 70.7132 65.2374L41.409 81.8109C38.9653 83.1929 35.976 83.1929 33.5324 81.8109L4.2282 65.2374C1.71828 63.8178 0.166504 61.1574 0.166504 58.2739V25.4104C0.166504 22.5269 1.71828 19.8665 4.2282 18.447L33.5324 1.87346Z" fill="url(#paint0_linear_1917_522)" fill-opacity="0.8"/>
<path d="M45.4463 66.0191H35.7901V39.5816C35.7901 38.8525 35.8005 37.9566 35.8213 36.8941C35.8421 35.8108 35.8734 34.7066 35.9151 33.5816C35.9567 32.4358 35.9984 31.4045 36.0401 30.4879C35.8109 30.7587 35.3421 31.2275 34.6338 31.8941C33.9463 32.54 33.3005 33.1233 32.6963 33.6441L27.4463 37.8629L22.7901 32.0504L37.5088 20.3316H45.4463V66.0191Z" fill="white"/>
<defs>
<linearGradient id="paint0_linear_1917_522" x1="59.3901" y1="70.0085" x2="13.9864" y2="16.4214" gradientUnits="userSpaceOnUse">
<stop stop-color="#00B7EC"/>
<stop offset="1" stop-color="#00B7EC" stop-opacity="0.33"/>
</linearGradient>
</defs>
</svg>
